<?xml version="1.0" standalone="no"?>
<!DOCTYPE svg PUBLIC "-//W3C//DTD SVG 20010904//EN"
 "http://www.w3.org/TR/2001/REC-SVG-20010904/DTD/svg10.dtd">
<svg version="1.0" xmlns="http://www.w3.org/2000/svg"
 width="500.000000pt" height="500.000000pt" viewBox="0 0 500.000000 500.000000"
 preserveAspectRatio="xMidYMid meet">

<g transform="translate(0.000000,500.000000) scale(0.100000,-0.100000)"
fill="#000000" stroke="none">
<path d="M2282 4989 c-1035 -92 -1915 -824 -2188 -1819 -120 -437 -122 -887
-5 -1321 229 -853 907 -1531 1760 -1760 639 -172 1320 -84 1888 241 579 333
1003 881 1174 1519 115 427 115 875 0 1302 -231 863 -921 1546 -1786 1767
-281 72 -565 96 -843 71z m548 -264 c417 -64 809 -242 1129 -514 l53 -45 -69
-12 c-90 -15 -157 -50 -216 -113 -89 -95 -128 -221 -108 -350 18 -118 36 -155
225 -481 106 -184 159 -345 172 -525 12 -171 -12 -288 -166 -795 -54 -179
-128 -422 -163 -540 -36 -118 -68 -208 -71 -200 -22 58 -806 2403 -804 2405 2
1 64 6 138 12 74 6 143 14 153 18 23 9 47 56 47 90 0 16 -12 39 -31 57 -29 30
-32 31 -102 24 -336 -29 -698 -31 -1028 -6 -73 6 -146 8 -162 4 -59 -13 -80
-105 -35 -151 22 -22 39 -25 158 -36 l134 -12 175 -479 175 -479 -245 -734
c-134 -403 -246 -733 -249 -733 -6 0 -812 2401 -811 2415 0 6 40 13 88 17 164
12 194 18 219 43 27 27 32 88 11 116 -29 38 -52 41 -205 29 -81 -6 -252 -14
-380 -17 -189 -5 -232 -4 -232 7 0 25 145 206 259 324 391 401 851 618 1436
680 82 8 404 -4 505 -19z m1684 -1222 c96 -193 176 -451 212 -683 25 -159 25
-481 0 -640 -36 -234 -116 -490 -214 -685 -170 -341 -460 -664 -785 -879 -49
-32 -90 -56 -92 -54 -2 2 154 458 346 1013 193 556 366 1055 385 1110 45 131
81 273 101 398 16 107 22 397 9 455 -12 50 1 38 38 -35z m-3554 -1488 c276
-759 516 -1415 531 -1459 35 -92 41 -92 -112 -5 -286 163 -564 425 -754 709
-134 201 -242 444 -301 675 -54 215 -68 333 -68 565 -1 232 14 352 69 565 37
145 113 351 124 338 5 -4 234 -629 511 -1388z m1934 -680 c192 -526 347 -957
345 -960 -10 -9 -231 -67 -329 -85 -287 -54 -561 -52 -845 5 -154 31 -195 43
-195 57 0 19 663 1938 670 1938 3 0 163 -430 354 -955z"/>
</g>
</svg>
